<svg data-v-1084b650="" xmlns="http://www.w3.org/2000/svg" viewBox="0 0 300 300"><!----> <!----> <rect data-v-1084b650="" fill="#ffffff" x="0" y="0" width="300px" height="300px" class="logo-background-square"></rect> <!----> <g data-v-1084b650="" id="49c0b70a-b9b5-12fd-39bf-ee9e21edf5eb" fill="#000000" transform="matrix(4.299999999999999,0,0,4.299999999999999,134.38911154270176,114.69699316024781)"><path d="M3.57 12.53C2.65 12.53 1.82 12.18 1.20 11.75C1.04 11.62 0.97 11.69 0.90 11.83L0.70 12.18C0.62 12.33 0.62 12.40 0.74 12.49C1.78 13.17 2.88 13.38 3.63 13.38C5.43 13.38 6.50 12.46 6.50 11.17C6.50 9.81 5.15 9.37 3.77 9.17C2.49 8.99 1.79 8.85 1.79 8.08C1.79 7.31 2.37 6.80 3.54 6.80C4.45 6.80 4.98 7.01 5.74 7.48C5.91 7.59 5.98 7.52 6.05 7.38L6.23 7.04C6.30 6.92 6.33 6.83 6.16 6.73C5.18 6.13 4.21 5.95 3.49 5.95C1.83 5.95 0.80 6.80 0.80 8.13C0.80 9.60 2.13 9.93 3.51 10.11C4.79 10.29 5.49 10.61 5.49 11.23C5.49 11.94 4.93 12.53 3.57 12.53ZM11.47 12.43C10.00 12.43 8.82 11.23 8.82 9.67C8.82 8.13 10.00 6.90 11.47 6.90C12.24 6.90 12.94 7.21 13.41 7.69C13.52 7.80 13.61 7.77 13.71 7.64L14.04 7.29C14.15 7.17 14.15 7.10 14.04 7C13.33 6.29 12.42 5.95 11.45 5.95C9.41 5.95 7.78 7.63 7.78 9.67C7.78 11.72 9.41 13.38 11.45 13.38C12.42 13.38 13.33 13.05 14.04 12.33C14.15 12.24 14.15 12.17 14.04 12.04L13.71 11.69C13.61 11.56 13.52 11.54 13.41 11.65C12.94 12.12 12.24 12.43 11.47 12.43ZM19.61 9.67C19.78 9.67 19.84 9.62 19.84 9.46L19.84 9.04C19.84 8.88 19.78 8.82 19.61 8.82L15.75 8.82C15.58 8.82 15.54 8.88 15.54 9.04L15.54 9.45C15.54 9.62 15.58 9.67 15.75 9.67ZM26.98 13.01C27.05 13.17 27.10 13.23 27.22 13.23L27.57 13.23C27.72 13.23 27.78 13.17 27.78 13.01L27.78 9.80L27.78 6.33C27.78 6.16 27.72 6.10 27.57 6.10L26.94 6.10C26.78 6.10 26.73 6.16 26.73 6.33L26.73 9.86C26.73 11.26 25.94 12.43 24.72 12.43C23.59 12.43 22.75 11.62 22.75 9.95L22.75 6.33C22.75 6.16 22.69 6.10 22.54 6.10L21.91 6.10C21.76 6.10 21.70 6.16 21.70 6.33L21.70 10.23C21.70 12.47 22.97 13.38 24.47 13.38C25.84 13.38 26.57 12.31 26.87 11.75ZM30.83 13.01C30.83 13.17 30.87 13.23 31.04 13.23L31.65 13.23C31.82 13.23 31.88 13.17 31.88 13.01L31.88 6.33C31.88 6.16 31.84 6.10 31.65 6.10L31.04 6.10C30.87 6.10 30.83 6.16 30.83 6.33ZM30.60 3.77C30.60 4.17 30.93 4.49 31.33 4.49C31.74 4.49 32.07 4.17 32.07 3.77C32.07 3.36 31.74 3.04 31.33 3.04C30.93 3.04 30.60 3.36 30.60 3.77Z"></path></g> <linearGradient data-v-1084b650="" gradientTransform="rotate(25)" id="9cd8ba4c-4959-3e66-1ca9-a3793c8d44d3" x1="0%" y1="0%" x2="100%" y2="0%"><stop data-v-1084b650="" offset="0%" style="stop-color: rgb(33, 105, 15); stop-opacity: 1;"></stop> <stop data-v-1084b650="" offset="100%" style="stop-color: rgb(136, 200, 72); stop-opacity: 1;"></stop></linearGradient> <g data-v-1084b650="" id="a576462f-39f4-bad1-13fc-a1b2962fd0cb" fill="url(#9cd8ba4c-4959-3e66-1ca9-a3793c8d44d3)" stroke="none" transform="matrix(0.3699001655870558,0,0,0.3699001655870558,26.428728865929642,94.57046075120255)"><svg xmlns="http://www.w3.org/2000/svg" xmlns:xlink="http://www.w3.org/1999/xlink" version="1.1" x="0px" y="0px" viewBox="0 0 100 100" style="enable-background:new 0 0 100 100;" xml:space="preserve"><style type="text/css">
	.st0{fill:#231F20;}
</style><path class="st0" d="M87.6,44.1L69.4,26.7c0,0,0,0-0.1,0l-17.2,0.5v-2.5v-0.1l-2.4-3c0,0-0.1-0.1-0.2,0l-1.4,1.1L48,21  c0-0.1-0.1-0.1-0.1-0.1l-20.5-1h-0.1l-0.6,0.9L23,21.7c0,0,0,0-0.1,0l-1.1,1.1l-0.3-0.3h-0.1l-5,1.4c-0.1,0-0.1,0.1-0.1,0.1  s0,0.1,0.1,0.1L16,25.6l-1.6,1l0,0l-1.9,3.1v0.1l5.1,4.3c0,0,0,0,0.1,0l2.2,0.1l0.9,2.2c0,0,0,0.1,0.1,0.1l3.5,6.2v0.1l0.6,1.3l0,0  l4,2.8l1.5,2.7l0.1,0.1l4.2,3.5l-0.1,2c0,0,0,0.1,0.1,0.1l1.4,0.9v1.1c0,0,0,0.1,0.1,0.1l1.2,0.7l0.1,0.9c0,0,0,0.1,0.1,0.1l4.2,2.7  l-0.1,1c0,0,0,0,0,0.1l1.7,3.8v2.4c0,0,0,0.1,0.1,0.1l2.6,1.6l1.8,3.7v3.6c0,0,0,0.1,0.1,0.1L52,80l0,0c0,0,0,0,0.1,0v-0.1l-0.3-1.5  l0.3-0.5l2.5-1.5H56c0,0,0.1,0,0.1-0.1L57,75v-0.1l-2.3-4.4l0.2-0.4L65,69.4c0,0,0,0,0.1,0l6.3-5.7H72c0,0,0,0,0.1,0l1.3-1  c0,0,0,0,0-0.1l0.6-1.9l2.6-1l0,0l1.6-1.5l0,0l0.7-1.9v-0.1l-0.7-1.5l5.2-6.9l3.8-2c0,0,0,0,0.1-0.1l0.4-1.3  C87.6,44.2,87.6,44.1,87.6,44.1z"></path></svg></g></svg>